<?xml version="1.0" encoding="UTF-8"?>
<svg width="100px" height="94px" viewBox="0 0 100 94" version="1.1" xmlns="http://www.w3.org/2000/svg" xmlns:xlink="http://www.w3.org/1999/xlink">
    <!-- Generator: Sketch 47.1 (45422) - http://www.bohemiancoding.com/sketch -->
    <title>Group 2</title>
    <desc>Created with Sketch.</desc>
    <defs>
        <path d="M1.25,0 L10,0 L10.625,12.5 C8.2404081,15.0798745 6.46957476,16.3698118 5.3125,16.3698118 C4.15542524,16.3698118 2.3845919,15.0798745 0,12.5 L1.25,0 Z" id="path-1"></path>
    </defs>
    <g id="Page-1" stroke="none" stroke-width="1" fill="none" fill-rule="evenodd">
        <g id="texar-copy" transform="translate(-463.000000, -469.000000)">
            <g id="examples" transform="translate(390.000000, 444.000000)">
                <g id="Group-2" transform="translate(67.000000, 9.000000)">
                    <rect id="Rectangle-11" x="0" y="0" width="110" height="110"></rect>
                    <g id="person" transform="translate(9.000000, 16.125000)">
                        <g id="Group-3" opacity="0.26000002" transform="translate(0.000000, 21.000000)">
                            <path d="M0.597261386,10.737205 L23.5972614,0.61720499 L23.5972614,0.61720499 C24.1027759,0.394778595 24.6928886,0.624266875 24.915315,1.12978141 C24.9711611,1.25670418 25,1.39385436 25,1.53252002 L25,31.34748 L25,31.34748 C25,31.7440171 24.765695,32.1030942 24.4027386,32.262795 L1.40273861,42.382795 L1.40273861,42.382795 C0.897224081,42.6052214 0.307111362,42.3757331 0.0846849676,41.8702186 C0.0288389488,41.7432958 4.23582914e-15,41.6061456 4.21884749e-15,41.46748 L1.77635684e-15,11.65252 L2.44249065e-15,11.65252 C2.39392887e-15,11.2559829 0.23430502,10.8969058 0.597261386,10.737205 Z" id="Rectangle-15" fill="#CACFD3"></path>
                            <path d="M3.45569059,24.6210164 L21.6993463,15.9973705" id="Line" stroke="#757C81" stroke-width="2" stroke-linecap="round"></path>
                            <path d="M10.9527538,15.9973705 L22.0290601,10.3697536" id="Line" stroke="#757C81" stroke-width="2" stroke-linecap="round"></path>
                            <path d="M3.45569059,30.6210164 L21.6993463,21.9973705" id="Line" stroke="#757C81" stroke-width="2" stroke-linecap="round"></path>
                            <path d="M3.45569059,35.6210164 L21.6993463,26.9973705" id="Line" stroke="#757C81" stroke-width="2" stroke-linecap="round"></path>
                            <polygon id="Rectangle-16" fill="#00DAE7" points="3.71871937 16.9264306 8.89681979 14.5836912 8.89681979 19.5836912 3.71871937 21.9264306"></polygon>
                        </g>
                        <g id="neck" transform="translate(40.375000, 27.625000)">
                            <mask id="mask-2" fill="white">
                                <use xlink:href="#path-1"></use>
                            </mask>
                            <use id="Rectangle-5" fill="#C18459" xlink:href="#path-1"></use>
                            <path d="M-1.23782464,0.535096156 L11.1310114,0.535096156 C10.5263505,6.74834496 8.7808239,10.0232401 5.89443146,10.3597814 C3.00803902,10.6963228 0.630620321,7.42142773 -1.23782464,0.535096156 Z" id="Rectangle-5" fill="#935D37" mask="url(#mask-2)"></path>
                        </g>
                        <g id="head" transform="translate(30.625000, 0.000000)">
                            <path d="M8.56816816,28.31955 C8.77156904,28.401347 9.30993196,28.2602668 9.55608862,28.31955 C12.3370823,28.9893105 19.0224204,29.6301246 23.375,27.6523807 C27.2645399,25.8850346 29.401237,21.3208692 29.401237,17.581867 C29.401237,9.28839099 24.0402816,0.532353789 15.1249969,1.0346169 C6.20971219,1.53688001 0.848756737,6.54718871 0.848756737,14.8406647 C0.848756737,23.1341407 4.01332309,26.4878328 8.56816816,28.31955 Z" id="Oval" fill="#1C2335"></path>
                            <path d="M15.3818037,33.885533 C19.2555938,33.6598362 21.0687519,31.7116671 24.263285,26.8360731 C25.9213289,24.3055158 26.1021196,21.0165306 26.1021196,18.4142125 C26.1021196,10.2107114 25.2882563,2.93824624 18.1125374,2.93824624 C10.9368185,2.93824624 3.91217922,9.48986181 3.91217922,17.7833378 C3.91217922,26.0768138 11.5080136,34.1112298 15.3818037,33.885533 Z" id="Oval" fill="#C18459"></path>
                            <path d="M5.43399445,24.8247007 C6.07259285,25.0815111 5.82544877,21.7768759 5.82544877,20.614114 C5.82544877,19.451352 5.30425557,18.5 4.29820542,18.5 C3.29215526,18.5 1.82544611,18.7905837 1.75147639,20.614114 C1.67750667,22.4376442 4.79539606,24.5678902 5.43399445,24.8247007 Z" id="Oval" fill="#C18459"></path>
                            <path d="M28.6838127,24.3247007 C29.3224111,24.5815111 29.075267,21.2768759 29.075267,20.114114 C29.075267,18.951352 28.5540738,18 27.5480236,18 C26.5419735,18 25.0752643,18.2905837 25.0012946,20.114114 C24.9273249,21.9376442 28.0452143,24.0678902 28.6838127,24.3247007 Z" id="Oval" fill="#C18459" transform="translate(27.061157, 21.169434) scale(-1, 1) translate(-27.061157, -21.169434) "></path>
                            <path d="M2.46157121,17.2412363 C3.91510393,21.0681601 3.3323097,19.2291773 4.37041044,17.2412363 C5.008192,16.0198981 7.1222416,14.5850421 8.13948538,14.8385437 C10.0477288,15.3140862 12.2009289,13.5213935 14.5892033,12.7333388 C17.0763632,11.912655 18.3978551,14.4989731 20.1284907,14.8385437 C22.3211025,15.2687593 23.6689815,13.399118 24.560613,14.2657018 C25.2974541,14.9818437 26.1239321,20.9366078 27.0722598,18.2032025 C28.2850689,14.707471 28.5820406,10.6149191 27.0722598,7.31930724 C25.0845885,2.98053666 20.4417327,-0.0973549818 15.375,0.18809108 C13.055792,0.31874901 10.4776039,0.681028009 8.13948538,1.85945196 C6.08847137,2.89317374 4.20493506,4.6454917 3.07649116,6.19456215 C0.546259901,9.66793507 1.26092331,14.0801185 2.46157121,17.2412363 Z" id="Oval" fill="#1C2335"></path>
                        </g>
                    </g>
                    <path d="M37.4367971,60.9256855 C38.2005422,57.7492372 42.1806626,55.7740087 49.3771583,55 C50.08533,56.6902782 51.7929439,57.4905284 54.5,57.4007506 C57.2070561,57.3109728 58.9818752,56.5107226 59.8244573,55 C66.1447961,55.7915301 69.9002099,57.3396934 71.0906985,59.6444898 C71.8315941,61.07887 71.8118275,65.9800627 71.0906985,74.5 C70.6099459,80.1799582 69.9130464,86.6799582 69,94 L38.6969223,92.5510319 C38.0302557,83.8218012 37.6969223,77.8047906 37.6969223,74.5 C37.6969223,67.4834396 36.9989524,62.7467004 37.4367971,60.9256855 Z" id="Rectangle-13" fill="#6700FF"></path>
                    <g id="Group-3" opacity="0.26000002" transform="translate(91.500000, 58.500000) scale(-1, 1) translate(-91.500000, -58.500000) translate(79.000000, 37.000000)">
                        <path d="M0.597261386,10.737205 L23.5972614,0.61720499 L23.5972614,0.61720499 C24.1027759,0.394778595 24.6928886,0.624266875 24.915315,1.12978141 C24.9711611,1.25670418 25,1.39385436 25,1.53252002 L25,31.34748 L25,31.34748 C25,31.7440171 24.765695,32.1030942 24.4027386,32.262795 L1.40273861,42.382795 L1.40273861,42.382795 C0.897224081,42.6052214 0.307111362,42.3757331 0.0846849676,41.8702186 C0.0288389488,41.7432958 4.23582914e-15,41.6061456 4.21884749e-15,41.46748 L1.77635684e-15,11.65252 L2.44249065e-15,11.65252 C2.39392887e-15,11.2559829 0.23430502,10.8969058 0.597261386,10.737205 Z" id="Rectangle-15" fill="#CACFD3"></path>
                        <path d="M3.45569059,24.6210164 L21.6993463,15.9973705" id="Line" stroke="#757C81" stroke-width="2" stroke-linecap="round"></path>
                        <path d="M10.9527538,15.9973705 L22.0290601,10.3697536" id="Line" stroke="#757C81" stroke-width="2" stroke-linecap="round"></path>
                        <path d="M3.45569059,30.6210164 L21.6993463,21.9973705" id="Line" stroke="#757C81" stroke-width="2" stroke-linecap="round"></path>
                        <path d="M3.45569059,35.6210164 L21.6993463,26.9973705" id="Line" stroke="#757C81" stroke-width="2" stroke-linecap="round"></path>
                        <polygon id="Rectangle-16" fill="#00DAE7" points="3.71871937 16.9264306 8.89681979 14.5836912 8.89681979 19.5836912 3.71871937 21.9264306"></polygon>
                    </g>
                    <path d="M70.2504851,58.5275988 C73.979922,59.2205765 87.4233122,76.7132062 85.4901709,81.9201439 C85.0122218,83.2075053 80.6460293,86.339207 72.3915936,91.3152489 C72.3915936,93.5633349 71.1283715,94.5698073 68.6019273,94.3346664 C66.6931951,94.1570171 66.9188068,90.4495081 67.7219588,89.012863 C67.803878,88.8663292 70.1421316,87.7404507 70.9510645,87.0168954 C74.2671025,84.0508434 77.1102023,81.7202329 76.8395957,79.7288459 C76.5792357,77.8128631 71.1970923,70.9468553 70.2504851,66.7078765 C69.3705165,62.7673108 68.6997583,58.2394536 70.2504851,58.5275988 Z" id="Rectangle-14" fill="#935D37"></path>
                    <path d="M85.4901709,81.9201439 C85.0122218,83.2075053 80.6460293,86.339207 72.3915936,91.3152489 C72.3915936,93.5633349 71.1283715,94.5698073 68.6019273,94.3346664 C66.6931951,94.1570171 66.9188068,90.4495081 67.7219588,89.012863 C67.803878,88.8663292 70.1421316,87.7404507 70.9510645,87.0168954 C74.2671025,84.0508434 74.4596733,82.2078253 76.8395957,79.7288459 C79.2195182,77.2498664 87.4233122,76.7132062 85.4901709,81.9201439 Z" id="Rectangle-14" fill="#C18459"></path>
                    <path d="M59.8244573,55 C65.3547234,56.0006878 69.1101372,57.017651 71.0906985,58.0508896 C74.9724821,60.0759763 78.6064928,64.2240443 78.8104056,66.0695323 C78.9945556,67.7361594 73.972873,70.9019624 73.5572599,72.96101 C73.1416468,75.0200575 71.225518,69.2270058 71.0906985,70.8198603 C70.6099459,76.4998185 69.5592455,84.0782638 67.9385974,93.5551963 L59.8244573,55 Z" id="Rectangle-13" fill="#6700FF"></path>
                    <path d="M9.58095566,58.5275988 C12.7488211,59.1162293 19.1527775,66.0942576 18.1384599,81.3129331 C18.1217386,81.5638167 26.9575346,79.2239199 27.9882246,74.8405797 C29.1959672,69.7042669 33.2962009,75.1825996 38.3064883,77.8957046 C42.9473685,80.4087732 32.4167494,78.1750514 32.2478965,78.6298584 C31.8345212,79.7432896 14.9073654,95.7813629 13.0575762,94.0744972 C9.58095566,90.8664967 10.5275629,70.9468553 9.58095566,66.7078765 C8.70098711,62.7673108 8.03022888,58.2394536 9.58095566,58.5275988 Z" id="Rectangle-14" fill="#C18459" transform="translate(24.069754, 76.358027) scale(-1, 1) translate(-24.069754, -76.358027) "></path>
                    <path d="M28.2304622,55 C33.7607284,56.0006878 37.5161421,57.017651 39.4967035,58.0508896 C43.378487,60.0759763 48.6089362,66.2376093 48.812849,68.0830972 C48.996999,69.7497243 38.9388828,72.2185506 38.5232697,74.2775981 C38.1076565,76.3366457 36.4794218,68.7720679 36.3446024,70.3649223 C35.8638497,76.0448805 33.1591363,70.9232397 28.2304622,55 Z" id="Rectangle-13" fill="#6700FF" transform="translate(38.522905, 64.817804) scale(-1, 1) translate(-38.522905, -64.817804) "></path>
                    <g id="Group-3" transform="translate(42.000000, 78.000000)">
                        <rect id="Rectangle-15" fill="#CACFD3" x="0" y="0" width="31" height="32" rx="1"></rect>
                        <path d="M5.5,14.5 L25.5,14.5" id="Line" stroke="#757C81" stroke-width="2" stroke-linecap="round"></path>
                        <path d="M5.5,20.5 L25.5,20.5" id="Line" stroke="#757C81" stroke-width="2" stroke-linecap="round"></path>
                        <path d="M5.5,25.5 L25.5,25.5" id="Line" stroke="#757C81" stroke-width="2" stroke-linecap="round"></path>
                        <rect id="Rectangle-16" fill="#00DAE7" x="5" y="5" width="8" height="5"></rect>
                    </g>
                    <g id="Group-3" transform="translate(6.000000, 65.000000)">
                        <path d="M1.34731436,0.499005317 L26.3473144,9.75826458 L26.3473144,9.75826458 C26.7396051,9.90355745 27,10.2776809 27,10.6960133 L27,40.5632459 L27,40.5632459 C27,41.1155307 26.5522847,41.5632459 26,41.5632459 C25.8814539,41.5632459 25.7638521,41.5421674 25.6526856,41.5009947 L0.652685644,32.2417354 L0.652685644,32.2417354 C0.260394881,32.0964425 -6.14902862e-16,31.7223191 -6.66133815e-16,31.3039867 L0,1.43675408 L0,1.43675408 C-6.76353751e-17,0.884469328 0.44771525,0.436754078 1,0.436754078 C1.11854611,0.436754078 1.23614789,0.457832551 1.34731436,0.499005317 Z" id="Rectangle-15" fill="#CACFD3"></path>
                        <path d="M3.67028621,15.6276168 L21.6993463,21.9973705" id="Line" stroke="#757C81" stroke-width="2" stroke-linecap="round"></path>
                        <path d="M12.8901108,13.1409189 L22.0290601,16.3697536" id="Line" stroke="#757C81" stroke-width="2" stroke-linecap="round"></path>
                        <path d="M3.67028621,21.6276168 L16,26" id="Line" stroke="#757C81" stroke-width="2" stroke-linecap="round"></path>
                        <path d="M3.67028621,26.6276168 L21.6993463,32.9973705" id="Line" stroke="#757C81" stroke-width="2" stroke-linecap="round"></path>
                        <polygon id="Rectangle-16" fill="#00DAE7" points="3.71629152 6.62686461 10.4042394 9.25898973 10.4042394 14.2589897 3.71629152 11.6268646"></polygon>
                        <polygon id="Rectangle-16" fill="#00DAE7" points="18 24 22.2502344 25.5255942 22.2502344 30.5255942 18 29"></polygon>
                    </g>
                    <path d="M20.2295592,73.7796479 C23.1378245,74.6364151 22.5475267,71.9987486 24.2840368,72.0512583 C24.5162023,72.0582786 25.8599598,72.4722413 25.9571171,72.404077 C26.0542745,72.3359127 24.9010714,69.9630605 22.920319,69.4001159 C20.6338771,68.750292 17.4698942,68.8954305 17.4698942,70 C17.4698942,71.1045695 17.321294,72.9228807 20.2295592,73.7796479 Z" id="Oval-3" fill="#C18459"></path>
                    <g id="Group-3" transform="translate(92.500000, 86.000000) scale(-1, 1) translate(-92.500000, -86.000000) translate(79.000000, 65.000000)">
                        <path d="M1.34731436,0.499005317 L26.3473144,9.75826458 L26.3473144,9.75826458 C26.7396051,9.90355745 27,10.2776809 27,10.6960133 L27,40.5632459 L27,40.5632459 C27,41.1155307 26.5522847,41.5632459 26,41.5632459 C25.8814539,41.5632459 25.7638521,41.5421674 25.6526856,41.5009947 L0.652685644,32.2417354 L0.652685644,32.2417354 C0.260394881,32.0964425 -6.14902862e-16,31.7223191 -6.66133815e-16,31.3039867 L0,1.43675408 L0,1.43675408 C-6.76353751e-17,0.884469328 0.44771525,0.436754078 1,0.436754078 C1.11854611,0.436754078 1.23614789,0.457832551 1.34731436,0.499005317 Z" id="Rectangle-15" fill="#CACFD3"></path>
                        <path d="M3.67028621,15.6276168 L21.6993463,21.9973705" id="Line" stroke="#757C81" stroke-width="2" stroke-linecap="round"></path>
                        <path d="M12.8901108,13.1409189 L22.0290601,16.3697536" id="Line" stroke="#757C81" stroke-width="2" stroke-linecap="round"></path>
                        <path d="M3.67028621,21.6276168 L21.6993463,27.9973705" id="Line" stroke="#757C81" stroke-width="2" stroke-linecap="round"></path>
                        <path d="M3.67028621,26.6276168 L21.6993463,32.9973705" id="Line" stroke="#757C81" stroke-width="2" stroke-linecap="round"></path>
                        <polygon id="Rectangle-16" fill="#00DAE7" points="3.71629152 6.62686461 10.4042394 9.25898973 10.4042394 14.2589897 3.71629152 11.6268646"></polygon>
                    </g>
                </g>
            </g>
        </g>
    </g>
</svg>