<?xml version="1.0" encoding="UTF-8"?>
<svg width="97px" height="81px" viewBox="0 0 97 81" version="1.1" xmlns="http://www.w3.org/2000/svg" xmlns:xlink="http://www.w3.org/1999/xlink">
    <!-- Generator: Sketch 47.1 (45422) - http://www.bohemiancoding.com/sketch -->
    <title>Group 8</title>
    <desc>Created with Sketch.</desc>
    <defs>
        <path d="M1.25,0 L10,0 L10.625,12.5 C8.2404081,15.0798745 6.46957476,16.3698118 5.3125,16.3698118 C4.15542524,16.3698118 2.3845919,15.0798745 0,12.5 L1.25,0 Z" id="path-1"></path>
    </defs>
    <g id="Page-1" stroke="none" stroke-width="1" fill="none" fill-rule="evenodd">
        <g id="texar-copy" transform="translate(-790.000000, -474.000000)">
            <g id="model-zoo" transform="translate(715.000000, 444.000000)">
                <g id="Group-8" transform="translate(68.000000, 9.000000)">
                    <rect id="Rectangle-11" x="0" y="0" width="110" height="110"></rect>
                    <g id="Group-7" transform="translate(7.000000, 16.000000)">
                        <g id="person" transform="translate(50.000000, 0.000000)">
                            <g id="head" transform="translate(1.625000, 0.000000)">
                                <path d="M8.56816816,34.31955 C8.77156904,34.401347 9.30993196,34.2602668 9.55608862,34.31955 C11.4334183,34.7716766 12.8978554,43.1795915 16.7959731,47.3355007 C18.6723556,49.3359727 23.2472886,49.5802879 24.6616281,48.9376341 C28.5511681,47.1702881 29.401237,27.3208692 29.401237,23.581867 C29.401237,15.288391 24.0402816,6.53235379 15.1249969,7.0346169 C6.20971219,7.53688001 0.848756737,12.5471887 0.848756737,20.8406647 C0.848756737,29.1341407 4.01332309,32.4878328 8.56816816,34.31955 Z" id="Oval" fill="#1C2335"></path>
                                <g id="neck" transform="translate(7.750000, 33.625000)">
                                    <mask id="mask-2" fill="white">
                                        <use xlink:href="#path-1"></use>
                                    </mask>
                                    <use id="Rectangle-5" fill="#FFCE95" xlink:href="#path-1"></use>
                                    <path d="M-1.23782464,0.535096156 L11.1310114,0.535096156 C9.09429987,5.60844262 5.92474124,7.82840533 1.62233551,7.19498428 C-2.68007021,6.56156323 -3.63345693,4.34160052 -1.23782464,0.535096156 Z" id="Rectangle-5" fill="#F4B164" mask="url(#mask-2)"></path>
                                </g>
                                <path d="M6.88431939,36.19477 C10.2938595,37.1817847 18.8367694,35.8021528 22.0313025,30.9265588 C23.6893465,28.3960015 25.1021196,27.0165306 25.1021196,24.4142125 C25.1021196,16.2107114 24.2882563,8.93824624 17.1125374,8.93824624 C9.93681846,8.93824624 2.89044067,16.7626499 2.89044067,21.6035554 C2.89044067,26.4444608 3.47477925,35.2077553 6.88431939,36.19477 Z" id="Oval" fill="#FFCE95"></path>
                                <path d="M26.6838127,31.3247007 C27.3224111,31.5815111 27.075267,28.2768759 27.075267,27.114114 C27.075267,25.951352 26.5540738,25 25.5480236,25 C24.5419735,25 23.0752643,25.2905837 23.0012946,27.114114 C22.9273249,28.9376442 26.0452143,31.0678902 26.6838127,31.3247007 Z" id="Oval" fill="#FFCE95" transform="translate(25.061157, 28.169434) scale(-1, 1) rotate(-29.000000) translate(-25.061157, -28.169434) "></path>
                                <path d="M4.46157121,23.2412363 C5.91510393,27.0681601 5.3323097,25.2291773 6.37041044,23.2412363 C7.008192,22.0198981 9.1222416,20.5850421 10.1394854,20.8385437 C12.0477288,21.3140862 14.2009289,19.5213935 16.5892033,18.7333388 C19.0763632,17.912655 20.3978551,20.4989731 22.1284907,20.8385437 C24.3211025,21.2687593 25.6689815,19.399118 26.560613,20.2657018 C27.2974541,20.9818437 28.1239321,26.9366078 29.0722598,24.2032025 C30.2850689,20.707471 30.5820406,16.6149191 29.0722598,13.3193072 C27.0845885,8.98053666 22.4417327,5.90264502 17.375,6.18809108 C15.055792,6.31874901 12.4776039,6.68102801 10.1394854,7.85945196 C8.08847137,8.89317374 6.20493506,10.6454917 5.07649116,12.1945622 C2.5462599,15.6679351 3.26092331,20.0801185 4.46157121,23.2412363 Z" id="Oval" fill="#1C2335" transform="translate(16.732976, 15.821817) rotate(32.000000) translate(-16.732976, -15.821817) "></path>
                            </g>
                            <path d="M1.73052183,47.7679852 C3.02522717,46.4612218 6.99420238,45.1625363 13.6374474,43.8719287 C23.3493938,44.5873915 28.5631632,45.886077 29.2787557,47.7679852 C29.9943482,49.6498933 29.1226964,55.3271261 26.6638004,64.7996837 L2.86599965,64.7996837 C0.437534124,55.1322654 0.0590415171,49.4550325 1.73052183,47.7679852 Z" id="Rectangle-18" fill="#FFCE95"></path>
                            <path d="M36.2313452,53.1837264 C30.7149373,56.5106977 29.2070293,58.5276298 28.6570552,59.1006229 C27.0997456,60.7231134 26.2140605,62.6895725 26,65 L27.6788908,46.586774 C29.3235838,47.0187136 30.7819866,47.5032923 32.054099,48.0405102 C33.9622677,48.846337 37.5555852,52.3850711 36.2313452,53.1837264 Z" id="Rectangle-19" fill="#FFCE95"></path>
                            <path d="M1.73052183,47.7679852 C2.16709447,47.3273466 2.9077391,46.8876264 3.95245569,46.4488248 C5.32148571,47.7679852 5.81288677,53.768393 15.1145441,53.1920092 C24.4162014,52.6156253 24.6632249,48.3823633 26.2962039,45.801264 C27.4322621,46.1769503 28.714698,46.675927 30.1435117,47.2981941 C30.1938851,53.2399939 30.1938851,56.6349388 30.1435117,57.4830286 C30.0280604,59.4267762 29.6138597,62.1800143 28.9009097,65.7427429 L2.18375597,65.7427429 C1.9660415,62.7461114 1.81496345,60.6639563 1.73052183,59.4962777 C1.37605443,54.5946195 1.84966748,50.4320473 1.73052183,47.7679852 Z" id="Rectangle-18" fill="#6700FF"></path>
                        </g>
                        <path d="M53.6135709,56.4477741 C50.5191341,61.2211089 49.022511,64.1243351 49.1237018,65.1574527 C49.2248926,66.1905703 50.9967234,65.9197555 54.4391942,64.3450081 C38.2905781,72.4816964 29.0774417,76.0506749 26.799785,75.0519434 C23.3833,73.5538463 16.0751163,49.2031043 16.6406396,48.0954326 C17.2061629,46.9877609 1.82405515,40.5369349 5.23804307,40.1456103 C7.20104706,39.9206032 14.0737003,40.3951706 19.2866398,46.6416971 C21.5002404,49.2941957 25.343304,55.7631123 30.8158305,66.0484469 L53.6135709,56.4477741 Z" id="Rectangle-21" fill="#FFCE95" transform="translate(29.591090, 57.659585) rotate(-21.000000) translate(-29.591090, -57.659585) "></path>
                        <g id="Group-6" transform="translate(28.000000, 45.000000)">
                            <polygon id="Rectangle-20" fill="#DBE1E6" points="0 5.41935484 16 9.03225806 16 27.0967742 0 23.483871"></polygon>
                            <path d="M0.0033009847,5.42010022 L0,5.41935484 L0,23.483871 L16,27.0967742 L16,9.03225806 L24,3.61290323 L8.00250922,0.00128173828 L0.0033009847,5.42010022 Z" id="Combined-Shape" fill="#C2CBD2"></path>
                            <polygon id="Rectangle-20" fill="#95A0A8" points="24 3.61290323 24 21.6774194 16 27.0967742 16 9.03225806"></polygon>
                            <polygon id="Rectangle-20" fill="#D9DDE0" transform="translate(12.001255, 4.516770) scale(-1, 1) translate(-12.001255, -4.516770) " points="0.00250922309 3.61290323 8.00250922 9.03225806 24 5.42063658 16 0.00128173828"></polygon>
                        </g>
                        <g id="Group-6" transform="translate(44.000000, 53.000000)">
                            <polygon id="Rectangle-20" fill="#DBE1E6" points="0 6 18 10 18 30 0 26"></polygon>
                            <path d="M0.00371360779,6.00082525 L0,6 L0,26 L18,30 L18,10 L27,4 L9.00282288,0.00141906738 L0.00371360779,6.00082525 Z" id="Combined-Shape" fill="#DBE1E6"></path>
                            <polygon id="Rectangle-20" fill="#95A0A8" points="27 4 27 24 18 30 18 10"></polygon>
                            <polygon id="Rectangle-20" fill="#CACFD3" transform="translate(13.501411, 5.000710) scale(-1, 1) translate(-13.501411, -5.000710) " points="0.00282287598 4 9.00282288 10 27 6.00141907 18 0.00141906738"></polygon>
                        </g>
                        <g id="Group-6" transform="translate(24.000000, 58.000000)">
                            <polygon id="Rectangle-20" fill="#DBE1E6" points="0 5.41935484 16 9.03225806 16 27.0967742 0 23.483871"></polygon>
                            <path d="M0.0033009847,5.42010022 L0,5.41935484 L0,23.483871 L16,27.0967742 L16,9.03225806 L24,3.61290323 L8.00250922,0.00128173828 L0.0033009847,5.42010022 Z" id="Combined-Shape" fill="#DBE1E6"></path>
                            <polygon id="Rectangle-20" fill="#95A0A8" points="24 3.61290323 24 21.6774194 16 27.0967742 16 9.03225806"></polygon>
                            <polygon id="Rectangle-20" fill="#D2D8DD" transform="translate(12.001255, 4.516770) scale(-1, 1) translate(-12.001255, -4.516770) " points="0.00250922309 3.61290323 8.00250922 9.03225806 24 5.42063658 16 0.00128173828"></polygon>
                        </g>
                        <path d="M87.7141593,53.3402805 C92.9706989,61.1736867 97.179962,75.3183472 96.629988,75.8913403 C95.5972735,76.9672788 86.7214957,73.2048113 87.3432641,70.9516177 C87.7904611,69.331044 79.8621647,60.4118418 80.0037277,58.2020076 C80.398491,52.0396507 81.3550165,47.745285 82.054099,48.0405102 C83.9622677,48.846337 87.0514813,52.3527437 87.7141593,53.3402805 Z" id="Rectangle-19" fill="#FFCE95"></path>
                        <g id="Group-6" transform="translate(69.000000, 64.000000)">
                            <polygon id="Rectangle-20" fill="#DBE1E6" points="0 2.90322581 8.66666667 4.83870968 8.66666667 14.516129 0 12.5806452"></polygon>
                            <path d="M0.00178803338,2.90362512 L0,2.90322581 L0,12.5806452 L8.66666667,14.516129 L8.66666667,4.83870968 L13,1.93548387 L4.3346925,0.000686645508 L0.00178803338,2.90362512 Z" id="Combined-Shape" fill="#DBE1E6"></path>
                            <polygon id="Rectangle-20" fill="#95A0A8" points="13 1.93548387 13 11.6129032 8.66666667 14.516129 8.66666667 4.83870968"></polygon>
                            <polygon id="Rectangle-20" fill="#D2D8DD" transform="translate(6.500680, 2.419698) scale(-1, 1) translate(-6.500680, -2.419698) " points="0.00135916251 1.93548387 4.3346925 4.83870968 13 2.90391245 8.66666667 0.000686645508"></polygon>
                        </g>
                        <path d="M96.629988,75.8913403 C95.2972515,78.3107373 74.141587,80.904096 62.2225475,83.3507146 C59.9973949,83.8074712 54.8536619,83.7714361 51.5261182,83.889142 C48.8175395,83.9849532 45.9394836,81.3843271 47.0230864,80.102367 C48.1066892,78.8204068 52.8275503,78.635826 53.7415742,78.3107373 C54.7371529,77.9566423 51.4643285,76.9582157 51.7834766,76.760659 C54.4751199,75.0944977 59.1140412,78.5869766 60.0431513,78.3107373 C69.3225159,75.5518336 86.5707128,71.3903649 88.5900519,70.5823321 C91.6144693,69.37212 96.952505,75.3058556 96.629988,75.8913403 Z" id="Rectangle-19" fill="#FFCE95"></path>
                        <g id="Group-6" transform="translate(10.068119, 43.215944) rotate(-39.000000) translate(-10.068119, -43.215944) translate(4.068119, 36.215944)">
                            <polygon id="Rectangle-20" fill="#DBE1E6" points="0 2.70967742 8 4.51612903 8 13.5483871 0 11.7419355"></polygon>
                            <path d="M0.00165049235,2.71005011 L0,2.70967742 L0,11.7419355 L8,13.5483871 L8,4.51612903 L12,1.80645161 L4.00125461,0.000640869141 L0.00165049235,2.71005011 Z" id="Combined-Shape" fill="#CACFD3"></path>
                            <polygon id="Rectangle-20" fill="#B9BFC4" points="12 1.80645161 12 10.8387097 8 13.5483871 8 4.51612903"></polygon>
                            <polygon id="Rectangle-20" fill="#E0E2E4" transform="translate(6.000627, 2.258385) scale(-1, 1) translate(-6.000627, -2.258385) " points="0.00125461155 1.80645161 4.00125461 4.51612903 12 2.71031829 8 0.000640869141"></polygon>
                        </g>
                    </g>
                </g>
            </g>
        </g>
    </g>
</svg>