<?xml version="1.0" encoding="UTF-8"?>
<svg width="103px" height="86px" viewBox="0 0 103 86" version="1.1" xmlns="http://www.w3.org/2000/svg" xmlns:xlink="http://www.w3.org/1999/xlink">
    <!-- Generator: Sketch 47.1 (45422) - http://www.bohemiancoding.com/sketch -->
    <title>Group 2</title>
    <desc>Created with Sketch.</desc>
    <defs>
        <path d="M1.25,0 L10,0 L10.625,12.5 C8.2404081,15.0798745 6.46957476,16.3698118 5.3125,16.3698118 C4.15542524,16.3698118 2.3845919,15.0798745 0,12.5 L1.25,0 Z" id="path-1"></path>
    </defs>
    <g id="Page-1" stroke="none" stroke-width="1" fill="none" fill-rule="evenodd">
        <g id="texar-copy" transform="translate(-132.000000, -473.000000)">
            <g id="tutorials" transform="translate(64.000000, 444.000000)">
                <g id="Group-2" transform="translate(67.000000, 9.000000)">
                    <rect id="Rectangle-11" x="0" y="0" width="110" height="110"></rect>
                    <rect id="Rectangle-4" fill="#DBE1E6" x="1" y="101" width="100" height="5"></rect>
                    <rect id="Rectangle-17" fill="#757C81" x="3" y="99" width="14" height="2"></rect>
                    <polygon id="Rectangle-17" fill="#757C81" points="10 47 12 47 5 67.8098866 13 101 9 101 3 67.8098866"></polygon>
                    <path d="M12.5012439,47.8408025 C12.6847085,47.8408025 8.58193952,47.9649777 8.51808081,45.1720591 C8.45422209,42.3791404 12.6847085,42.1935374 12.5012439,42.1935374 C12.3177793,42.1935374 12.1690518,43.4577207 12.1690518,45.0171699 C12.1690518,46.5766191 12.3177793,47.8408025 12.5012439,47.8408025 Z" id="Oval-4" fill="#95A0A8" transform="translate(10.512291, 45.017584) rotate(32.000000) translate(-10.512291, -45.017584) "></path>
                    <g id="Group-4" transform="translate(18.543578, 48.498097) rotate(-5.000000) translate(-18.543578, -48.498097) translate(6.043578, 34.998097)">
                        <path d="M18.9394403,23.137211 C19.5969221,23.137211 4.89383528,23.5922786 4.6649849,13.3570104 C4.43613452,3.12174233 19.5969221,2.44155887 18.9394403,2.44155887 C18.2819584,2.44155887 17.7489641,7.07443842 17.7489641,12.789385 C17.7489641,18.5043315 18.2819584,23.137211 18.9394403,23.137211 Z" id="Oval-4" fill="#D0D3D6" transform="translate(11.811634, 12.790902) rotate(32.000000) translate(-11.811634, -12.790902) "></path>
                        <ellipse id="Oval-4" fill="#E4E7EA" transform="translate(17.857143, 16.652174) rotate(32.000000) translate(-17.857143, -16.652174) " cx="17.8571429" cy="16.6521739" rx="1.19047619" ry="10.3478261"></ellipse>
                    </g>
                    <g id="person" transform="translate(23.000000, 19.125000)">
                        <g id="neck" transform="translate(24.375000, 35.625000)">
                            <mask id="mask-2" fill="white">
                                <use xlink:href="#path-1"></use>
                            </mask>
                            <use id="Rectangle-5" fill="#FFBF93" xlink:href="#path-1"></use>
                            <path d="M-1.23782464,0.535096156 L10,1.25 C13.1915821,6.475117 12.626324,9.37648256 8.30422546,9.95409669 C3.98212696,10.5317108 0.801443591,7.39204397 -1.23782464,0.535096156 Z" id="Rectangle-5" fill="#D78C58" mask="url(#mask-2)"></path>
                        </g>
                        <g id="head" transform="translate(15.625000, 0.000000)">
                            <path d="M9.26707496,13.8675734 C11.7629772,13.8675734 9.99162824,14.5708939 12.3184199,11.0331203 C14.6452115,7.49534671 14.547153,1.23657695 9.1062955,1.44935819 C3.66543803,1.66213944 2.16572394,6.67689662 5.6507952,10.4001724 C9.13586647,14.1234482 6.77117273,13.8675734 9.26707496,13.8675734 Z" id="Path" fill="#000000" transform="translate(8.768692, 7.684283) rotate(-16.000000) translate(-8.768692, -7.684283) "></path>
                            <path d="M10.1684055,13.6009724 C12.6643077,13.6009724 14.5238683,14.1659135 14.6876362,10.7676391 C14.8514042,7.36936465 12.6643077,7.93430574 10.1684055,7.93430574 C7.67250323,7.93430574 5.42329958,7.92429405 5.6491747,10.7676391 C5.87504982,13.6109841 7.67250323,13.6009724 10.1684055,13.6009724 Z" id="Path" fill="#00DAE7" transform="translate(10.164889, 10.767639) rotate(-16.000000) translate(-10.164889, -10.767639) "></path>
                            <path d="M8.56816816,36.31955 C13.1230132,38.1512672 29.0057011,34.3107791 29.0057011,26.0173031 C29.0057011,17.7238271 23.504488,8.43011027 14.5892033,8.93237338 C5.67391863,9.43463649 0.172705608,15.6400315 0.172705608,23.9335075 C0.172705608,32.2269835 4.01332309,34.4878328 8.56816816,36.31955 Z" id="Oval" fill="#000000"></path>
                            <path d="M13.4429521,41.8348892 C16.5529073,43.0855483 22.630706,40.0896362 26.1994502,34.6429098 C27.8574941,32.1123525 27.851428,28.3856559 27.851428,25.7833378 C27.851428,17.5798367 25.2882563,10.9382462 18.1125374,10.9382462 C10.9368185,10.9382462 4.01664457,17.4898618 4.01664457,25.7833378 C4.01664457,34.0768138 8.88810706,40.003172 13.4429521,41.8348892 Z" id="Oval" fill="#FFBF93"></path>
                            <path d="M5.43399445,31.8247007 C6.07259285,32.0815111 5.82544877,28.7768759 5.82544877,27.614114 C5.82544877,26.451352 5.30425557,25.5 4.29820542,25.5 C3.29215526,25.5 1.82544611,25.7905837 1.75147639,27.614114 C1.67750667,29.4376442 4.79539606,31.5678902 5.43399445,31.8247007 Z" id="Oval" fill="#FFBF93"></path>
                            <path d="M23.4608183,20.9831247 C23.4708781,20.9831247 23.3670841,25.0261547 28.1712447,28.7196278 C28.1712447,26.0900612 28.7627677,23.5658116 28.1712447,20.9831247 C26.897144,15.4201911 23.152592,10.4040956 17.4374732,9.23975336 C9.06901281,7.53484544 2.96789246,16.6043887 3.61679698,26.0173031 C3.73293578,27.7019957 4.64889427,31.4879718 5.57279313,30.9538536 C15.0131481,25.4962596 15.8703727,19.4357476 23.4608183,20.9831247 Z" id="Oval" fill="#000000"></path>
                        </g>
                        <g id="body" transform="translate(0.000000, 32.500000)">
                            <path d="M38.6214591,23.6556546 L49.2061447,22.2886175 L55.9122895,47.3915056 C53.4745419,50.7451642 51.3552319,51.5003271 49.5543593,49.6569941 C47.7534867,47.813661 44.1091866,39.1465479 38.6214591,23.6556546 Z" id="Rectangle-10" fill="#D78C58"></path>
                            <path d="M58.9607725,39.4669482 C61.5443934,40.938062 62.2779758,41.9319964 61.1615198,42.4487515 C59.4868357,43.2238841 57.1806024,49.2103775 55.349176,50.5922585 C53.5177496,51.9741394 51.0147321,51.2868867 49.7625674,49.9654493 C48.5104027,48.6440118 48.3548085,47.0230467 50.4999476,44.4306474 C51.9300404,42.7023812 54.7503153,41.0478148 58.9607725,39.4669482 Z" id="Rectangle-10" fill="#FFBF93"></path>
                            <path d="M8.24143391,18.8335057 L11.1788007,18.4206858 C14.2526545,32.3324095 15.1779853,40.7689778 13.954793,43.7303906 C12.9958501,46.0520419 10.9729574,47.915244 9.37464043,47.4965551 C7.91482606,47.1141478 6.85722676,44.6584486 6.31507571,42.34772 C5.55791592,39.1205921 6.20003532,31.2825207 8.24143391,18.8335057 Z" id="Rectangle-9" fill="#D78C58" transform="translate(10.242440, 32.988175) rotate(192.000000) translate(-10.242440, -32.988175) "></path>
                            <path d="M16.0797541,17.8561356 C18.9569275,16.5319181 21.5323792,16.1600178 24.2857331,15.6508647 C26.1589556,16.6352708 27.9575497,17.8892864 29.8097335,17.8561356 C31.1861004,17.8315011 32.953697,16.9213028 35.1125232,15.1255407 L48.5754654,19.4293894 L45.5889219,50.625 L14.8277247,50.625 L14.828392,29.0837005 L14.8277247,24.8969708 C13.7442954,21.0858924 14.1616385,18.7389473 16.0797541,17.8561356 Z" id="Rectangle-6" fill="#8592F3"></path>
                            <path d="M4.49143391,23.2085057 L7.42880068,22.7956858 C10.5026545,36.7074095 11.4279853,45.1439778 10.204793,48.1053906 C9.24585009,50.4270419 7.22295736,52.290244 5.62464043,51.8715551 C4.16482606,51.4891478 3.10722676,49.0334486 2.56507571,46.72272 C1.80791592,43.4955921 2.45003532,35.6575207 4.49143391,23.2085057 Z" id="Rectangle-9" fill="#FFBF93" transform="translate(6.492440, 37.363175) rotate(8.000000) translate(-6.492440, -37.363175) "></path>
                            <g id="Group" transform="translate(8.750000, 15.000000)">
                                <path d="M5.04544865,2.77555756e-16 L16.8472356,2.77555756e-16 L16.8472356,2.22044605e-16 C17.1924136,1.58636441e-16 17.4722356,0.279822031 17.4722356,0.625 C17.4722356,0.634052626 17.4720389,0.643104183 17.4716457,0.652148265 L16.875,14.375 L5,14.375 L4.90214017,12.7492239 L1.80640513,12.7492239 L1.80640513,12.7492239 C1.48891229,12.7492239 1.22186563,12.5111868 1.18551507,12.1957818 L0.0941607821,2.72636577 L0.0941607821,2.72636577 C0.0546404737,2.38345765 0.300584885,2.07343816 0.643493,2.03391785 C0.667247357,2.03118015 0.691139251,2.02980792 0.715050848,2.02980792 L4.51760034,2.02980792 L4.42198531,0.668800247 L4.42198531,0.668800247 C4.3977951,0.324470951 4.65731911,0.0257268665 5.0016484,0.00153665833 C5.01622603,0.000512534479 5.03083509,5.83754871e-16 5.04544865,5.55111512e-16 L5.04544865,2.77555756e-16 Z M2.58586606,4.0035087 C2.55721543,4.0035087 2.5285987,4.00547876 2.50021835,4.00940494 C2.15829678,4.05670686 1.91946037,4.37223485 1.9667623,4.71415641 L1.9667623,4.71415641 L2.7098622,10.0856477 C2.7526289,10.3947865 3.01688299,10.625 3.32896596,10.625 L5,10.625 L4.69725997,4.0035087 L2.58586606,4.0035087 Z" id="Combined-Shape" fill="#CACFD3"></path>
                                <path d="M16.875,14.375 L5,14.375 L5,14.5619078 L5,14.5619078 C5,14.9070858 5.27982203,15.1869078 5.625,15.1869078 L16.25,15.1869078 L16.25,15.1869078 C16.595178,15.1869078 16.875,14.9070858 16.875,14.5619078 L16.875,14.375 Z" id="Rectangle-7" fill="#0F0A62"></path>
                                <path d="M5.02776437,0 L16.8784993,0 L16.8784993,-6.64331975e-05 C17.2226782,-6.64331975e-05 17.502099,0.278170772 17.5035601,0.622346542 C17.5057787,1.14497489 17.504592,1.45909728 17.5,1.56471373 C17.4938077,1.70713583 13.1414847,1.70713583 4.44303103,1.56471373 L4.40335427,0.652148265 L4.40335427,0.652148265 C4.3883607,0.30729609 4.65576393,0.0155834739 5.00061611,0.000589901028 C5.00966019,0.000196680085 5.01871175,1.12689263e-16 5.02776437,1.11022302e-16 Z" id="Rectangle-7" fill="#0F0A62"></path>
                            </g>
                            <path d="M11.3429765,25.5453914 C13.7274682,26.4361985 13.2222322,22.0369299 13.2222322,19.9658621 C13.2222322,17.8947943 9.0162683,19.5274596 7.83871477,19.9658621 C6.66116124,20.4042646 6.06178904,24.2124508 6.06178904,26.2835186 C6.06178904,28.3545864 8.95848486,24.6545843 11.3429765,25.5453914 Z" id="Oval-2" fill="#FFBF93"></path>
                            <g id="book" transform="translate(40.625000, 0.000000)">
                                <path d="M0.788767783,5.8391624 L20.625,11.225 L21.875,11.225 L21.875,40.625 L20.625,40.625 L0.461232217,35.1502315 L0.461232217,35.1502315 C0.18898253,35.0763116 1.36681571e-15,34.8291754 1.33226763e-15,34.5470689 L0,6.442325 L-1.11022302e-16,6.442325 C-1.53294412e-16,6.09714703 0.279822031,5.817325 0.625,5.817325 C0.680315088,5.817325 0.735385396,5.82466828 0.788767783,5.8391624 Z" id="Rectangle-2" fill="#6700FF"></path>
                                <polygon id="Rectangle-2" fill="#460DB2" points="20.625 11.25 21.875 11.25 21.875 40.625 20.625 40.625"></polygon>
                                <path d="M39.0395062,0.32823032 L21.875,11.2486549 L21.875,40.625 L39.7104938,29.2776789 L39.7104938,29.2776789 C39.8908045,29.1629614 40,28.9640667 40,28.7503564 L40,0.855552742 L40,0.855552742 C40,0.510374774 39.720178,0.230552742 39.375,0.230552742 C39.2561565,0.230552742 39.1397764,0.264436328 39.0395062,0.32823032 Z" id="Rectangle-2" fill="#0F0A62"></path>
                                <path d="M26.0479966,16.5753485 L36.5346567,9.56732175" id="Path-2" stroke="#00DAE7" stroke-width="1.875" stroke-linecap="round"></path>
                            </g>
                            <path d="M63.0738784,33.8575246 C64.0034923,33.9132752 65.855863,36.43466 65.3366102,37.9294681 C64.6465799,39.9159052 63.0738784,42.1949855 60.817059,43.006546 C58.7771328,43.740111 58.0784852,42.5566009 57.6359109,41.3631036 C57.3866159,40.690826 57.8869565,39.8792906 58.5125674,39.7220136 C59.5759647,39.4546782 59.3083029,36.8478384 60.817059,35.5314454 C61.8594345,34.6219704 62.1442645,33.801774 63.0738784,33.8575246 Z" id="Rectangle-10" fill="#FFBF93"></path>
                        </g>
                    </g>
                </g>
            </g>
        </g>
    </g>
</svg>