<?xml version="1.0" encoding="UTF-8"?>
<svg width="572px" height="161px" viewBox="0 0 572 161" version="1.1" xmlns="http://www.w3.org/2000/svg" xmlns:xlink="http://www.w3.org/1999/xlink">
    <!-- Generator: Sketch 46.2 (44496) - http://www.bohemiancoding.com/sketch -->
    <title>Group</title>
    <desc>Created with Sketch.</desc>
    <defs>
        <linearGradient x1="49.9974132%" y1="131.603465%" x2="49.9974132%" y2="-29.1505%" id="linearGradient-1">
            <stop stop-color="#4E8AEB" offset="0%"></stop>
            <stop stop-color="#8CF9FF" offset="70%"></stop>
        </linearGradient>
        <linearGradient x1="-114.401629%" y1="103.21425%" x2="90.9708931%" y2="8.5413125%" id="linearGradient-2">
            <stop stop-color="#4E8AEB" offset="45%"></stop>
            <stop stop-color="#89F4FF" offset="93%"></stop>
        </linearGradient>
        <linearGradient x1="-139.41834%" y1="97.9595504%" x2="94.421441%" y2="17.51951%" id="linearGradient-3">
            <stop stop-color="#4E8AEB" offset="45%"></stop>
            <stop stop-color="#8CF9FF" offset="93%"></stop>
        </linearGradient>
        <linearGradient x1="-149.63106%" y1="90.4280994%" x2="76.9246062%" y2="29.2182982%" id="linearGradient-4">
            <stop stop-color="#70C6F4" offset="45.48%"></stop>
            <stop stop-color="#9CF9FF" offset="93%"></stop>
        </linearGradient>
    </defs>
    <g id="Page-1" stroke="none" stroke-width="1" fill="none" fill-rule="evenodd">
        <g id="Group" transform="translate(42.000000, 0.000000)" fill-rule="nonzero">
            <g transform="translate(98.000000, 85.000000)" id="Shape" fill="#0A1642">
                <path d="M0.361,71.055 L0.361,0.885 L35.261,0.885 C50.935,0.885 59.503,11.51 59.503,24.24 C59.503,36.864 50.935,47.49 35.261,47.49 L18.333,47.49 L18.333,71.055 L0.361,71.055 Z M41.217,24.24 C41.217,19.401 37.664,16.665 32.857,16.665 L18.333,16.665 L18.333,31.709 L32.857,31.709 C37.664,31.709 41.217,28.974 41.217,24.24 Z"></path>
                <polygon points="69.708 71.055 69.708 0.885 120.805 0.885 120.805 16.665 87.681 16.665 87.681 27.606 120.073 27.606 120.073 43.387 87.681 43.387 87.681 55.274 120.805 55.274 120.805 71.055 69.708 71.055"></polygon>
                <polygon points="149.788 71.055 149.788 16.665 130.249 16.665 130.249 0.885 187.197 0.885 187.197 16.665 167.761 16.665 167.761 71.055"></polygon>
                <path d="M196.418,42.65 L196.418,0.885 L214.704,0.885 L214.704,42.019 C214.704,50.33 219.615,56.327 229.437,56.327 C239.05,56.327 244.066,50.33 244.066,42.019 L244.066,0.885 L262.247,0.885 L262.247,42.545 C262.247,60.008 251.694,72.317 229.437,72.317 C206.972,72.318 196.418,59.904 196.418,42.65 Z"></path>
                <path d="M274.582,42.65 L274.582,0.885 L292.868,0.885 L292.868,42.019 C292.868,50.33 297.779,56.327 307.601,56.327 C317.214,56.327 322.23,50.33 322.23,42.019 L322.23,0.885 L340.411,0.885 L340.411,42.545 C340.411,60.008 329.858,72.317 307.601,72.317 C285.136,72.318 274.582,59.904 274.582,42.65 Z"></path>
                <polygon points="413.757 71.055 413.757 25.398 396.097 71.055 388.156 71.055 370.601 25.398 370.601 71.055 352.628 71.055 352.628 0.885 377.602 0.885 392.126 38.968 406.755 0.885 431.728 0.885 431.728 71.055"></polygon>
            </g>
            <g id="Shape">
                <path d="M10.531,81.227 C4.094,96.066 0.646,110.088 0.299,122.919 C-0.07,136.59 3.1,148.934 9.715,159.732 C8.417,149.599 8.691,139.205 10.531,128.648 L10.531,114.397 L10.531,81.227 Z" fill="url(#linearGradient-1)"></path>
                <path d="M10.531,0.637 L10.531,0.637 L10.531,68.425 C21.864,45.826 35.867,29.694 36.528,28.937 L36.666,29.096 L40.304,33.304 L40.192,33.43 C40.023,33.619 22.833,53.535 11.131,79.843 C10.925,80.306 10.732,80.765 10.531,81.226 L10.531,114.397 L10.531,128.648 C11.388,123.73 12.583,118.778 14.122,113.799 C18.658,99.128 26.137,84.205 36.352,69.446 C39.12,65.447 41.942,61.678 44.734,58.161 C58.918,40.293 72.279,29.023 73.42,28.073 C73.465,28.036 73.492,28.013 73.498,28.008 L77.205,32.384 L77.054,32.508 C76.863,32.666 57.807,48.538 40.546,72.92 C30.412,87.237 22.871,101.641 18.132,115.735 C12.95,131.146 11.147,146.217 12.71,160.637 C18.056,117.493 79.981,50.693 115.867,27.889 L10.531,0.637 Z" fill="url(#linearGradient-2)"></path>
                <path d="M10.531,0.637 L10.531,0.637 L10.531,68.425 C21.864,45.826 35.867,29.694 36.528,28.937 L36.666,29.096 L40.304,33.304 L40.192,33.43 C40.023,33.619 22.833,53.535 11.131,79.843 C10.925,80.306 10.732,80.765 10.531,81.226 L10.531,114.397 L10.531,128.648 C11.388,123.73 12.583,118.778 14.122,113.799 C18.658,99.128 26.137,84.205 36.352,69.446 C39.12,65.447 41.942,61.678 44.734,58.161 C58.918,40.293 72.279,29.023 73.42,28.073 L10.531,0.637 Z" fill="url(#linearGradient-3)"></path>
                <path d="M36.666,29.097 L36.687,29.061 L10.531,0.636 L10.531,68.424 C21.864,45.825 35.867,29.693 36.528,28.936 L36.666,29.097 Z" fill="url(#linearGradient-4)"></path>
            </g>
        </g>
    </g>
</svg>